# Blender 4.3.2
# www.blender.org
mtllib robot.mtl
o Cylinder
v 0.000000 -0.178187 1.000000
v 0.000000 0.178187 1.000000
v -0.195090 -0.178187 0.980785
v -0.195090 0.178187 0.980785
v -0.382683 -0.178187 0.923880
v -0.382683 0.178187 0.923880
v -0.555570 -0.178187 0.831470
v -0.555570 0.178187 0.831470
v -0.707107 -0.178187 0.707107
v -0.707107 0.178187 0.707107
v -0.831469 -0.178187 0.555571
v -0.831469 0.178187 0.555571
v -0.923879 -0.178187 0.382684
v -0.923879 0.178187 0.382684
v -0.980785 -0.178187 0.195091
v -0.980785 0.178187 0.195091
v -1.000000 -0.178187 0.000000
v -1.000000 0.178187 0.000000
v -0.980785 -0.178187 -0.195090
v -0.980785 0.178187 -0.195090
v -0.923880 -0.178187 -0.382683
v -0.923880 0.178187 -0.382683
v -0.831470 -0.178187 -0.555570
v -0.831470 0.178187 -0.555570
v -0.707107 -0.178187 -0.707107
v -0.707107 0.178187 -0.707107
v -0.555571 -0.178187 -0.831469
v -0.555571 0.178187 -0.831469
v -0.382684 -0.178187 -0.923879
v -0.382684 0.178187 -0.923879
v -0.195091 -0.178187 -0.980785
v -0.195091 0.178187 -0.980785
v -0.000000 -0.178187 -1.000000
v -0.000000 0.178187 -1.000000
v 0.195090 -0.178187 -0.980785
v 0.195090 0.178187 -0.980785
v 0.382683 -0.178187 -0.923880
v 0.382683 0.178187 -0.923880
v 0.555570 -0.178187 -0.831470
v 0.555570 0.178187 -0.831470
v 0.707107 -0.178187 -0.707107
v 0.707107 0.178187 -0.707107
v 0.831469 -0.178187 -0.555571
v 0.831469 0.178187 -0.555571
v 0.923879 -0.178187 -0.382684
v 0.923879 0.178187 -0.382684
v 0.980785 -0.178187 -0.195091
v 0.980785 0.178187 -0.195091
v 1.000000 -0.178187 -0.000000
v 1.000000 0.178187 -0.000000
v 0.980785 -0.178187 0.195090
v 0.980785 0.178187 0.195090
v 0.923880 -0.178187 0.382683
v 0.923880 0.178187 0.382683
v 0.831470 -0.178187 0.555570
v 0.831470 0.178187 0.555570
v 0.707107 -0.178187 0.707107
v 0.707107 0.178187 0.707107
v 0.555571 -0.178187 0.831469
v 0.555571 0.178187 0.831469
v 0.382684 -0.178187 0.923879
v 0.382684 0.178187 0.923879
v 0.195091 -0.178187 0.980785
v 0.195091 0.178187 0.980785
v -0.179719 0.222184 0.903510
v 0.000000 0.222184 0.921211
v -0.352532 0.222184 0.851088
v -0.511797 0.222184 0.765959
v -0.651394 0.222184 0.651395
v -0.765959 0.222184 0.511798
v -0.851088 0.222184 0.352532
v -0.903510 0.222184 0.179720
v -0.921211 0.222184 0.000000
v -0.903510 0.222184 -0.179719
v -0.851088 0.222184 -0.352532
v -0.765959 0.222184 -0.511797
v -0.651395 0.222184 -0.651394
v -0.511798 0.222184 -0.765959
v -0.352532 0.222184 -0.851088
v -0.179720 0.222184 -0.903510
v -0.000000 0.222184 -0.921211
v 0.179719 0.222184 -0.903510
v 0.352532 0.222184 -0.851088
v 0.511797 0.222184 -0.765959
v 0.651394 0.222184 -0.651395
v 0.765959 0.222184 -0.511798
v 0.851088 0.222184 -0.352532
v 0.903510 0.222184 -0.179720
v 0.921211 0.222184 -0.000000
v 0.903510 0.222184 0.179719
v 0.851088 0.222184 0.352532
v 0.765959 0.222184 0.511797
v 0.651395 0.222184 0.651394
v 0.511798 0.222184 0.765959
v 0.352532 0.222184 0.851088
v 0.179720 0.222184 0.903510
v 0.000000 -0.250308 0.893294
v -0.174273 -0.250308 0.876130
v -0.341849 -0.250308 0.825296
v -0.496288 -0.250308 0.742747
v -0.631654 -0.250308 0.631655
v -0.742747 -0.250308 0.496288
v -0.825296 -0.250308 0.341849
v -0.876130 -0.250308 0.174273
v -0.893294 -0.250308 0.000000
v -0.876130 -0.250308 -0.174273
v -0.825296 -0.250308 -0.341849
v -0.742747 -0.250308 -0.496288
v -0.631655 -0.250308 -0.631654
v -0.496288 -0.250308 -0.742747
v -0.341849 -0.250308 -0.825296
v -0.174273 -0.250308 -0.876130
v -0.000000 -0.250308 -0.893294
v 0.174273 -0.250308 -0.876130
v 0.341849 -0.250308 -0.825296
v 0.496288 -0.250308 -0.742747
v 0.631654 -0.250308 -0.631655
v 0.742747 -0.250308 -0.496288
v 0.825296 -0.250308 -0.341849
v 0.876130 -0.250308 -0.174273
v 0.893294 -0.250308 -0.000000
v 0.876130 -0.250308 0.174273
v 0.825296 -0.250308 0.341849
v 0.742747 -0.250308 0.496288
v 0.631655 -0.250308 0.631654
v 0.496288 -0.250308 0.742747
v 0.341849 -0.250308 0.825296
v 0.174273 -0.250308 0.876130
v -0.161583 0.222184 0.812334
v 0.000000 0.222184 0.828248
v -0.316957 0.222184 0.765202
v -0.460150 0.222184 0.688663
v -0.585660 0.222184 0.585660
v -0.688663 0.222184 0.460150
v -0.765201 0.222184 0.316957
v -0.812333 0.222184 0.161583
v -0.828248 0.222184 0.000000
v -0.812334 0.222184 -0.161583
v -0.765202 0.222184 -0.316957
v -0.688663 0.222184 -0.460150
v -0.585660 0.222184 -0.585660
v -0.460150 0.222184 -0.688663
v -0.316957 0.222184 -0.765201
v -0.161583 0.222184 -0.812333
v -0.000000 0.222184 -0.828248
v 0.161583 0.222184 -0.812334
v 0.316957 0.222184 -0.765202
v 0.460150 0.222184 -0.688663
v 0.585660 0.222184 -0.585660
v 0.688663 0.222184 -0.460150
v 0.765201 0.222184 -0.316957
v 0.812333 0.222184 -0.161583
v 0.828248 0.222184 -0.000000
v 0.812334 0.222184 0.161583
v 0.765202 0.222184 0.316957
v 0.688663 0.222184 0.460150
v 0.585660 0.222184 0.585660
v 0.460150 0.222184 0.688663
v 0.316957 0.222184 0.765201
v 0.161583 0.222184 0.812333
v -0.034842 0.222184 0.175165
v 0.000000 0.222184 0.178597
v -0.068346 0.222184 0.165002
v -0.099223 0.222184 0.148498
v -0.126287 0.222184 0.126287
v -0.148498 0.222184 0.099223
v -0.165002 0.222184 0.068346
v -0.175165 0.222184 0.034843
v -0.178597 0.222184 0.000000
v -0.175165 0.222184 -0.034842
v -0.165002 0.222184 -0.068346
v -0.148498 0.222184 -0.099223
v -0.126287 0.222184 -0.126287
v -0.099223 0.222184 -0.148498
v -0.068346 0.222184 -0.165002
v -0.034843 0.222184 -0.175165
v -0.000000 0.222184 -0.178597
v 0.034842 0.222184 -0.175165
v 0.068346 0.222184 -0.165002
v 0.099223 0.222184 -0.148498
v 0.126287 0.222184 -0.126287
v 0.148498 0.222184 -0.099223
v 0.165002 0.222184 -0.068346
v 0.175165 0.222184 -0.034843
v 0.178597 0.222184 -0.000000
v 0.175165 0.222184 0.034842
v 0.165002 0.222184 0.068346
v 0.148498 0.222184 0.099223
v 0.126287 0.222184 0.126287
v 0.099223 0.222184 0.148498
v 0.068346 0.222184 0.165002
v 0.034843 0.222184 0.175165
v -0.034842 0.701417 0.175165
v 0.000000 0.701417 0.178597
v -0.068346 0.701417 0.165002
v -0.099223 0.701417 0.148498
v -0.126287 0.701417 0.126287
v -0.148498 0.701417 0.099223
v -0.165002 0.701417 0.068346
v -0.175165 0.701417 0.034843
v -0.178597 0.701417 0.000000
v -0.175165 0.701417 -0.034842
v -0.165002 0.701417 -0.068346
v -0.148498 0.701417 -0.099223
v -0.126287 0.701417 -0.126287
v -0.099223 0.701417 -0.148498
v -0.068346 0.701417 -0.165002
v -0.034843 0.701417 -0.175165
v -0.000000 0.701417 -0.178597
v 0.034842 0.701417 -0.175165
v 0.068346 0.701417 -0.165002
v 0.099223 0.701417 -0.148498
v 0.126287 0.701417 -0.126287
v 0.148498 0.701417 -0.099223
v 0.165002 0.701417 -0.068346
v 0.175165 0.701417 -0.034843
v 0.178597 0.701417 -0.000000
v 0.175165 0.701417 0.034842
v 0.165002 0.701417 0.068346
v 0.148498 0.701417 0.099223
v 0.126287 0.701417 0.126287
v 0.099223 0.701417 0.148498
v 0.068346 0.701417 0.165002
v 0.034843 0.701417 0.175165
v 0.224374 0.515624 -0.224374
v 0.224374 0.964371 -0.224374
v 0.224374 0.515624 0.224374
v 0.224374 0.964371 0.224374
v -0.224374 0.515624 -0.224374
v -0.224374 0.964371 -0.224374
v -0.224374 0.515624 0.224374
v -0.224374 0.964371 0.224374
v 0.189498 0.929495 0.224374
v 0.189498 0.550499 0.224374
v -0.189498 0.550499 0.224374
v -0.189498 0.929495 0.224374
v 0.189498 0.929495 0.481831
v 0.189498 0.550499 0.481831
v -0.189498 0.550499 0.481831
v -0.189498 0.929495 0.481831
v 0.169260 0.909257 0.481831
v 0.169260 0.570737 0.481831
v -0.169260 0.570737 0.481831
v -0.169260 0.909257 0.481831
vn -0.0980 -0.0000 0.9952
vn -0.2903 -0.0000 0.9569
vn -0.4714 -0.0000 0.8819
vn -0.6344 -0.0000 0.7730
vn -0.7730 -0.0000 0.6344
vn -0.8819 -0.0000 0.4714
vn -0.9569 -0.0000 0.2903
vn -0.9952 -0.0000 0.0980
vn -0.9952 -0.0000 -0.0980
vn -0.9569 -0.0000 -0.2903
vn -0.8819 -0.0000 -0.4714
vn -0.7730 -0.0000 -0.6344
vn -0.6344 -0.0000 -0.7730
vn -0.4714 -0.0000 -0.8819
vn -0.2903 -0.0000 -0.9569
vn -0.0980 -0.0000 -0.9952
vn 0.0980 -0.0000 -0.9952
vn 0.2903 -0.0000 -0.9569
vn 0.4714 -0.0000 -0.8819
vn 0.6344 -0.0000 -0.7730
vn 0.7730 -0.0000 -0.6344
vn 0.8819 -0.0000 -0.4714
vn 0.9569 -0.0000 -0.2903
vn 0.9952 -0.0000 -0.0980
vn 0.9952 -0.0000 0.0980
vn 0.9569 -0.0000 0.2903
vn 0.8819 -0.0000 0.4714
vn 0.7730 -0.0000 0.6344
vn 0.6344 -0.0000 0.7730
vn 0.4714 -0.0000 0.8819
vn 0.4316 0.8721 0.2307
vn 0.2903 -0.0000 0.9569
vn 0.0980 -0.0000 0.9952
vn -0.4343 -0.8273 0.3564
vn -0.0000 1.0000 -0.0000
vn -0.3783 0.8721 0.3104
vn -0.2307 0.8721 -0.4316
vn 0.4683 0.8721 -0.1420
vn -0.0480 0.8721 0.4870
vn 0.0480 0.8721 0.4870
vn -0.4683 0.8721 -0.1420
vn 0.2307 0.8721 -0.4316
vn 0.3783 0.8721 0.3104
vn -0.4316 0.8721 0.2307
vn -0.1420 0.8721 -0.4683
vn 0.4870 0.8721 -0.0480
vn -0.1420 0.8721 0.4683
vn -0.4316 0.8721 -0.2307
vn 0.3104 0.8721 -0.3783
vn 0.3104 0.8721 0.3783
vn -0.4683 0.8721 0.1420
vn -0.0480 0.8721 -0.4870
vn 0.4870 0.8721 0.0480
vn -0.2307 0.8721 0.4316
vn -0.3783 0.8721 -0.3104
vn 0.3783 0.8721 -0.3104
vn 0.2307 0.8721 0.4316
vn -0.4870 0.8721 0.0480
vn 0.0480 0.8721 -0.4870
vn 0.4683 0.8721 0.1420
vn -0.3104 0.8721 0.3783
vn -0.3104 0.8721 -0.3783
vn 0.4316 0.8721 -0.2307
vn 0.1420 0.8721 0.4683
vn -0.4870 0.8721 -0.0480
vn 0.1420 0.8721 -0.4683
vn -0.0000 -1.0000 -0.0000
vn -0.2648 -0.8273 -0.4955
vn 0.5376 -0.8273 -0.1631
vn -0.0551 -0.8273 0.5591
vn 0.0551 -0.8273 0.5591
vn -0.5376 -0.8273 -0.1631
vn 0.2648 -0.8273 -0.4955
vn 0.4343 -0.8273 0.3564
vn -0.4955 -0.8273 0.2648
vn -0.1631 -0.8273 -0.5376
vn 0.5591 -0.8273 -0.0551
vn -0.1631 -0.8273 0.5376
vn -0.4955 -0.8273 -0.2648
vn 0.3564 -0.8273 -0.4343
vn 0.3564 -0.8273 0.4343
vn -0.5376 -0.8273 0.1631
vn -0.0551 -0.8273 -0.5591
vn 0.5591 -0.8273 0.0551
vn -0.2648 -0.8273 0.4955
vn -0.4343 -0.8273 -0.3564
vn 0.4343 -0.8273 -0.3564
vn 0.2648 -0.8273 0.4955
vn -0.5591 -0.8273 0.0551
vn 0.0551 -0.8273 -0.5591
vn 0.5376 -0.8273 0.1631
vn -0.3564 -0.8273 0.4343
vn -0.3564 -0.8273 -0.4343
vn 0.4955 -0.8273 -0.2648
vn 0.1631 -0.8273 0.5376
vn -0.5591 -0.8273 -0.0551
vn 0.1631 -0.8273 -0.5376
vn 0.4955 -0.8273 0.2648
vn 1.0000 -0.0000 -0.0000
vn -0.0000 -0.0000 1.0000
vn -1.0000 -0.0000 -0.0000
vn -0.0000 -0.0000 -1.0000
vt 1.000000 0.500000
vt 1.000000 1.000000
vt 0.968750 1.000000
vt 0.968750 0.500000
vt 0.937500 1.000000
vt 0.937500 0.500000
vt 0.906250 1.000000
vt 0.906250 0.500000
vt 0.875000 1.000000
vt 0.875000 0.500000
vt 0.843750 1.000000
vt 0.843750 0.500000
vt 0.812500 1.000000
vt 0.812500 0.500000
vt 0.781250 1.000000
vt 0.781250 0.500000
vt 0.750000 1.000000
vt 0.750000 0.500000
vt 0.718750 1.000000
vt 0.718750 0.500000
vt 0.687500 1.000000
vt 0.687500 0.500000
vt 0.656250 1.000000
vt 0.656250 0.500000
vt 0.625000 1.000000
vt 0.625000 0.500000
vt 0.593750 1.000000
vt 0.593750 0.500000
vt 0.562500 1.000000
vt 0.562500 0.500000
vt 0.531250 1.000000
vt 0.531250 0.500000
vt 0.500000 1.000000
vt 0.500000 0.500000
vt 0.468750 1.000000
vt 0.468750 0.500000
vt 0.437500 1.000000
vt 0.437500 0.500000
vt 0.406250 1.000000
vt 0.406250 0.500000
vt 0.375000 1.000000
vt 0.375000 0.500000
vt 0.343750 1.000000
vt 0.343750 0.500000
vt 0.312500 1.000000
vt 0.312500 0.500000
vt 0.281250 1.000000
vt 0.281250 0.500000
vt 0.250000 1.000000
vt 0.250000 0.500000
vt 0.218750 1.000000
vt 0.218750 0.500000
vt 0.187500 1.000000
vt 0.187500 0.500000
vt 0.156250 1.000000
vt 0.156250 0.500000
vt 0.125000 1.000000
vt 0.125000 0.500000
vt 0.093750 1.000000
vt 0.093750 0.500000
vt 0.062500 1.000000
vt 0.062500 0.500000
vt 0.031250 1.000000
vt 0.031250 0.500000
vt 0.000000 1.000000
vt 0.000000 0.500000
vt 0.750000 0.490000
vt 0.796822 0.485388
vt 0.841844 0.471731
vt 0.883337 0.449553
vt 0.919706 0.419706
vt 0.949553 0.383337
vt 0.971731 0.341844
vt 0.985388 0.296822
vt 0.990000 0.250000
vt 0.985388 0.203178
vt 0.971731 0.158156
vt 0.949553 0.116663
vt 0.919706 0.080294
vt 0.883337 0.050447
vt 0.841844 0.028269
vt 0.796822 0.014612
vt 0.750000 0.010000
vt 0.703178 0.014612
vt 0.658156 0.028269
vt 0.616663 0.050447
vt 0.580294 0.080294
vt 0.550447 0.116663
vt 0.528269 0.158156
vt 0.514612 0.203178
vt 0.510000 0.250000
vt 0.514612 0.296822
vt 0.528269 0.341844
vt 0.550447 0.383337
vt 0.580294 0.419706
vt 0.616663 0.449553
vt 0.658156 0.471731
vt 0.703178 0.485388
vt 0.296822 0.485388
vt 0.250000 0.490000
vt 0.203178 0.485388
vt 0.158156 0.471731
vt 0.116663 0.449553
vt 0.080294 0.419706
vt 0.050447 0.383337
vt 0.028269 0.341844
vt 0.014612 0.296822
vt 0.010000 0.250000
vt 0.014612 0.203178
vt 0.028269 0.158156
vt 0.050447 0.116663
vt 0.080294 0.080294
vt 0.116663 0.050447
vt 0.158156 0.028269
vt 0.203178 0.014612
vt 0.250000 0.010000
vt 0.296822 0.014612
vt 0.341844 0.028269
vt 0.383337 0.050447
vt 0.419706 0.080294
vt 0.449553 0.116663
vt 0.471731 0.158156
vt 0.485388 0.203178
vt 0.490000 0.250000
vt 0.485388 0.296822
vt 0.471731 0.341844
vt 0.449553 0.383337
vt 0.419706 0.419706
vt 0.383337 0.449553
vt 0.341844 0.471731
vt 0.375000 0.000000
vt 0.625000 0.000000
vt 0.625000 0.250000
vt 0.375000 0.250000
vt 0.625000 0.750000
vt 0.375000 0.750000
vt 0.125000 0.750000
vt 0.875000 0.750000
s 0
usemtl Preto
f 1/1/1 2/2/1 4/3/1 3/4/1
f 3/4/2 4/3/2 6/5/2 5/6/2
f 5/6/3 6/5/3 8/7/3 7/8/3
f 7/8/4 8/7/4 10/9/4 9/10/4
f 9/10/5 10/9/5 12/11/5 11/12/5
f 11/12/6 12/11/6 14/13/6 13/14/6
f 13/14/7 14/13/7 16/15/7 15/16/7
f 15/16/8 16/15/8 18/17/8 17/18/8
f 17/18/9 18/17/9 20/19/9 19/20/9
f 19/20/10 20/19/10 22/21/10 21/22/10
f 21/22/11 22/21/11 24/23/11 23/24/11
f 23/24/12 24/23/12 26/25/12 25/26/12
f 25/26/13 26/25/13 28/27/13 27/28/13
f 27/28/14 28/27/14 30/29/14 29/30/14
f 29/30/15 30/29/15 32/31/15 31/32/15
f 31/32/16 32/31/16 34/33/16 33/34/16
f 33/34/17 34/33/17 36/35/17 35/36/17
f 35/36/18 36/35/18 38/37/18 37/38/18
f 37/38/19 38/37/19 40/39/19 39/40/19
f 39/40/20 40/39/20 42/41/20 41/42/20
f 41/42/21 42/41/21 44/43/21 43/44/21
f 43/44/22 44/43/22 46/45/22 45/46/22
f 45/46/23 46/45/23 48/47/23 47/48/23
f 47/48/24 48/47/24 50/49/24 49/50/24
f 49/50/25 50/49/25 52/51/25 51/52/25
f 51/52/26 52/51/26 54/53/26 53/54/26
f 53/54/27 54/53/27 56/55/27 55/56/27
f 55/56/28 56/55/28 58/57/28 57/58/28
f 57/58/29 58/57/29 60/59/29 59/60/29
f 59/60/30 60/59/30 62/61/30 61/62/30
f 56/55/31 54/53/31 91/53/31 92/55/31
f 61/62/32 62/61/32 64/63/32 63/64/32
f 63/64/33 64/63/33 2/65/33 1/66/33
f 9/10/34 11/12/34 102/12/34 101/10/34
f 77/25/35 76/23/35 140/23/35 141/25/35
f 12/11/36 10/9/36 69/9/36 70/11/36
f 30/29/37 28/27/37 78/27/37 79/29/37
f 48/47/38 46/45/38 87/45/38 88/47/38
f 4/3/39 2/2/39 66/2/39 65/3/39
f 2/65/40 64/63/40 96/63/40 66/65/40
f 22/21/41 20/19/41 74/19/41 75/21/41
f 40/39/42 38/37/42 83/37/42 84/39/42
f 58/57/43 56/55/43 92/55/43 93/57/43
f 14/13/44 12/11/44 70/11/44 71/13/44
f 32/31/45 30/29/45 79/29/45 80/31/45
f 50/49/46 48/47/46 88/47/46 89/49/46
f 6/5/47 4/3/47 65/3/47 67/5/47
f 24/23/48 22/21/48 75/21/48 76/23/48
f 42/41/49 40/39/49 84/39/49 85/41/49
f 60/59/50 58/57/50 93/57/50 94/59/50
f 16/15/51 14/13/51 71/13/51 72/15/51
f 34/33/52 32/31/52 80/31/52 81/33/52
f 52/51/53 50/49/53 89/49/53 90/51/53
f 8/7/54 6/5/54 67/5/54 68/7/54
f 26/25/55 24/23/55 76/23/55 77/25/55
f 44/43/56 42/41/56 85/41/56 86/43/56
f 62/61/57 60/59/57 94/59/57 95/61/57
f 18/17/58 16/15/58 72/15/58 73/17/58
f 36/35/59 34/33/59 81/33/59 82/35/59
f 54/53/60 52/51/60 90/51/60 91/53/60
f 10/9/61 8/7/61 68/7/61 69/9/61
f 28/27/62 26/25/62 77/25/62 78/27/62
f 46/45/63 44/43/63 86/43/63 87/45/63
f 64/63/64 62/61/64 95/61/64 96/63/64
f 20/19/65 18/17/65 73/17/65 74/19/65
f 38/37/66 36/35/66 82/35/66 83/37/66
f 97/67/67 98/68/67 99/69/67 100/70/67 101/71/67 102/72/67 103/73/67 104/74/67 105/75/67 106/76/67 107/77/67 108/78/67 109/79/67 110/80/67 111/81/67 112/82/67 113/83/67 114/84/67 115/85/67 116/86/67 117/87/67 118/88/67 119/89/67 120/90/67 121/91/67 122/92/67 123/93/67 124/94/67 125/95/67 126/96/67 127/97/67 128/98/67
f 27/28/68 29/30/68 111/30/68 110/28/68
f 45/46/69 47/48/69 120/48/69 119/46/69
f 1/1/70 3/4/70 98/4/70 97/1/70
f 63/64/71 1/66/71 97/66/71 128/64/71
f 19/20/72 21/22/72 107/22/72 106/20/72
f 37/38/73 39/40/73 116/40/73 115/38/73
f 55/56/74 57/58/74 125/58/74 124/56/74
f 11/12/75 13/14/75 103/14/75 102/12/75
f 29/30/76 31/32/76 112/32/76 111/30/76
f 47/48/77 49/50/77 121/50/77 120/48/77
f 3/4/78 5/6/78 99/6/78 98/4/78
f 21/22/79 23/24/79 108/24/79 107/22/79
f 39/40/80 41/42/80 117/42/80 116/40/80
f 57/58/81 59/60/81 126/60/81 125/58/81
f 13/14/82 15/16/82 104/16/82 103/14/82
f 31/32/83 33/34/83 113/34/83 112/32/83
f 49/50/84 51/52/84 122/52/84 121/50/84
f 5/6/85 7/8/85 100/8/85 99/6/85
f 23/24/86 25/26/86 109/26/86 108/24/86
f 41/42/87 43/44/87 118/44/87 117/42/87
f 59/60/88 61/62/88 127/62/88 126/60/88
f 15/16/89 17/18/89 105/18/89 104/16/89
f 33/34/90 35/36/90 114/36/90 113/34/90
f 51/52/91 53/54/91 123/54/91 122/52/91
f 7/8/92 9/10/92 101/10/92 100/8/92
f 25/26/93 27/28/93 110/28/93 109/26/93
f 43/44/94 45/46/94 119/46/94 118/44/94
f 61/62/95 63/64/95 128/64/95 127/62/95
f 17/18/96 19/20/96 106/20/96 105/18/96
f 35/36/97 37/38/97 115/38/97 114/36/97
f 53/54/98 55/56/98 124/56/98 123/54/98
f 91/53/35 90/51/35 154/51/35 155/53/35
f 78/27/35 77/25/35 141/25/35 142/27/35
f 92/55/35 91/53/35 155/53/35 156/55/35
f 79/29/35 78/27/35 142/27/35 143/29/35
f 65/3/35 66/2/35 130/2/35 129/3/35
f 93/57/35 92/55/35 156/55/35 157/57/35
f 80/31/35 79/29/35 143/29/35 144/31/35
f 67/5/35 65/3/35 129/3/35 131/5/35
f 94/59/35 93/57/35 157/57/35 158/59/35
f 81/33/35 80/31/35 144/31/35 145/33/35
f 68/7/35 67/5/35 131/5/35 132/7/35
f 95/61/35 94/59/35 158/59/35 159/61/35
f 82/35/35 81/33/35 145/33/35 146/35/35
f 69/9/35 68/7/35 132/7/35 133/9/35
f 96/63/35 95/61/35 159/61/35 160/63/35
f 83/37/35 82/35/35 146/35/35 147/37/35
f 70/11/35 69/9/35 133/9/35 134/11/35
f 66/65/35 96/63/35 160/63/35 130/65/35
f 84/39/35 83/37/35 147/37/35 148/39/35
f 71/13/35 70/11/35 134/11/35 135/13/35
f 85/41/35 84/39/35 148/39/35 149/41/35
f 72/15/35 71/13/35 135/13/35 136/15/35
f 86/43/35 85/41/35 149/41/35 150/43/35
f 73/17/35 72/15/35 136/15/35 137/17/35
f 87/45/35 86/43/35 150/43/35 151/45/35
f 74/19/35 73/17/35 137/17/35 138/19/35
f 88/47/35 87/45/35 151/45/35 152/47/35
f 75/21/35 74/19/35 138/19/35 139/21/35
f 89/49/35 88/47/35 152/47/35 153/49/35
f 76/23/35 75/21/35 139/21/35 140/23/35
f 90/51/35 89/49/35 153/49/35 154/51/35
f 193/99/35 194/100/35 224/101/35 223/102/35 222/103/35 221/104/35 220/105/35 219/106/35 218/107/35 217/108/35 216/109/35 215/110/35 214/111/35 213/112/35 212/113/35 211/114/35 210/115/35 209/116/35 208/117/35 207/118/35 206/119/35 205/120/35 204/121/35 203/122/35 202/123/35 201/124/35 200/125/35 199/126/35 198/127/35 197/128/35 196/129/35 195/130/35
f 174/27/13 173/25/13 205/25/13 206/27/13
f 175/29/14 174/27/14 206/27/14 207/29/14
f 176/31/15 175/29/15 207/29/15 208/31/15
f 177/33/16 176/31/16 208/31/16 209/33/16
f 228/10/100 232/26/100 236/26/100 233/10/100
f 227/134/100 228/133/100 233/133/100 234/134/100
f 232/26/100 231/42/100 235/42/100 236/26/100
f 231/42/100 227/58/100 234/58/100 235/42/100
f 242/134/100 241/133/100 244/26/100 243/42/100
usemtl Vermelho
f 225/131/99 226/132/99 228/133/99 227/134/99
f 231/42/101 232/26/101 230/135/101 229/136/101
f 229/136/102 230/135/102 226/25/102 225/41/102
f 227/58/67 231/42/67 229/136/67 225/137/67
f 232/26/35 228/10/35 226/138/35 230/135/35
f 233/10/35 236/26/35 240/26/35 237/10/35
f 238/134/100 237/133/100 241/133/100 242/134/100
f 234/134/99 233/133/99 237/133/99 238/134/99
f 236/26/101 235/42/101 239/42/101 240/26/101
f 235/42/67 234/58/67 238/58/67 239/42/67
f 240/26/100 239/42/100 243/42/100 244/26/100
f 239/42/100 238/58/100 242/58/100 243/42/100
f 237/10/100 240/26/100 244/26/100 241/10/100
usemtl cinzento
f 147/37/35 146/35/35 178/35/35 179/37/35
f 182/43/21 181/41/21 213/41/21 214/43/21
f 134/11/35 133/9/35 165/9/35 166/11/35
f 130/65/35 160/63/35 192/63/35 162/65/35
f 148/39/35 147/37/35 179/37/35 180/39/35
f 135/13/35 134/11/35 166/11/35 167/13/35
f 149/41/35 148/39/35 180/39/35 181/41/35
f 136/15/35 135/13/35 167/13/35 168/15/35
f 150/43/35 149/41/35 181/41/35 182/43/35
f 137/17/35 136/15/35 168/15/35 169/17/35
f 151/45/35 150/43/35 182/43/35 183/45/35
f 138/19/35 137/17/35 169/17/35 170/19/35
f 152/47/35 151/45/35 183/45/35 184/47/35
f 139/21/35 138/19/35 170/19/35 171/21/35
f 153/49/35 152/47/35 184/47/35 185/49/35
f 140/23/35 139/21/35 171/21/35 172/23/35
f 154/51/35 153/49/35 185/49/35 186/51/35
f 141/25/35 140/23/35 172/23/35 173/25/35
f 155/53/35 154/51/35 186/51/35 187/53/35
f 142/27/35 141/25/35 173/25/35 174/27/35
f 156/55/35 155/53/35 187/53/35 188/55/35
f 143/29/35 142/27/35 174/27/35 175/29/35
f 129/3/35 130/2/35 162/2/35 161/3/35
f 157/57/35 156/55/35 188/55/35 189/57/35
f 144/31/35 143/29/35 175/29/35 176/31/35
f 131/5/35 129/3/35 161/3/35 163/5/35
f 158/59/35 157/57/35 189/57/35 190/59/35
f 145/33/35 144/31/35 176/31/35 177/33/35
f 132/7/35 131/5/35 163/5/35 164/7/35
f 159/61/35 158/59/35 190/59/35 191/61/35
f 146/35/35 145/33/35 177/33/35 178/35/35
f 133/9/35 132/7/35 164/7/35 165/9/35
f 160/63/35 159/61/35 191/61/35 192/63/35
f 169/17/8 168/15/8 200/15/8 201/17/8
f 183/45/22 182/43/22 214/43/22 215/45/22
f 170/19/9 169/17/9 201/17/9 202/19/9
f 184/47/23 183/45/23 215/45/23 216/47/23
f 171/21/10 170/19/10 202/19/10 203/21/10
f 185/49/24 184/47/24 216/47/24 217/49/24
f 172/23/11 171/21/11 203/21/11 204/23/11
f 186/51/25 185/49/25 217/49/25 218/51/25
f 173/25/12 172/23/12 204/23/12 205/25/12
f 187/53/26 186/51/26 218/51/26 219/53/26
f 188/55/27 187/53/27 219/53/27 220/55/27
f 161/3/1 162/2/1 194/2/1 193/3/1
f 189/57/28 188/55/28 220/55/28 221/57/28
f 163/5/2 161/3/2 193/3/2 195/5/2
f 190/59/29 189/57/29 221/57/29 222/59/29
f 164/7/3 163/5/3 195/5/3 196/7/3
f 191/61/30 190/59/30 222/59/30 223/61/30
f 178/35/17 177/33/17 209/33/17 210/35/17
f 165/9/4 164/7/4 196/7/4 197/9/4
f 192/63/32 191/61/32 223/61/32 224/63/32
f 179/37/18 178/35/18 210/35/18 211/37/18
f 166/11/5 165/9/5 197/9/5 198/11/5
f 162/65/33 192/63/33 224/63/33 194/65/33
f 180/39/19 179/37/19 211/37/19 212/39/19
f 167/13/6 166/11/6 198/11/6 199/13/6
f 181/41/20 180/39/20 212/39/20 213/41/20
f 168/15/7 167/13/7 199/13/7 200/15/7
